<svg xmlns="http://www.w3.org/2000/svg" viewBox="0 0 51.13 51.13"><defs><style>.cls-1{fill:#f2f2f2;}.cls-2{fill:#f75747;fill-rule:evenodd;}.cls-3{fill:none;stroke:#000;stroke-linecap:round;stroke-linejoin:round;}</style></defs><title>Asset 1</title><g id="Layer_2" data-name="Layer 2"><g id="Layer_1-2" data-name="Layer 1"><circle class="cls-1" cx="25.56" cy="25.56" r="4.18"/><path class="cls-2" d="M15.48,21.39,9.69,15.6A7.59,7.59,0,0,1,7.87,7.81h0a7.53,7.53,0,0,1,7.68,1.83l5.84,5.84V7.22A7.53,7.53,0,0,1,25.52.5h0a7.59,7.59,0,0,1,4.22,6.79v8.19l5.84-5.84a7.53,7.53,0,0,1,7.68-1.83h0a7.59,7.59,0,0,1-1.83,7.79l-5.78,5.79H43.9a7.52,7.52,0,0,1,6.73,4.13h0a7.58,7.58,0,0,1-6.8,4.22H35.65l5.84,5.84a7.51,7.51,0,0,1,1.82,7.67h0a7.58,7.58,0,0,1-7.78-1.83l-5.79-5.78v8.18a7.6,7.6,0,0,1-4.22,6.8h0a7.55,7.55,0,0,1-4.13-6.72V35.65L15.6,41.43a7.59,7.59,0,0,1-7.79,1.83h0a7.52,7.52,0,0,1,1.83-7.67l5.84-5.84H7.29A7.57,7.57,0,0,1,.5,25.52h0a7.52,7.52,0,0,1,6.72-4.13Z"/><circle class="cls-3" cx="25.56" cy="25.56" r="4.18"/><line class="cls-3" x1="21.39" y1="25.56" x2="21.39" y2="12.45"/><path class="cls-3" d="M21.39,7.22a7.31,7.31,0,0,1,.07-1"/><path class="cls-3" d="M23.35,2.15A7.52,7.52,0,0,1,25.52.5h0a7.59,7.59,0,0,1,4.22,6.79v8.19"/><path class="cls-3" d="M21.39,35.65v8.26a7.55,7.55,0,0,0,4.13,6.72h0a7.6,7.6,0,0,0,4.22-6.8V25.56"/><path class="cls-3" d="M25.56,21.39H43.9a7.52,7.52,0,0,1,6.73,4.13h0a7.58,7.58,0,0,1-6.8,4.22H35.65"/><path class="cls-3" d="M15.48,21.39H7.22A7.52,7.52,0,0,0,.5,25.52h0a7.57,7.57,0,0,0,6.79,4.22H25.56"/><path class="cls-3" d="M22.61,22.61l13-13a7.53,7.53,0,0,1,7.68-1.83h0a7.59,7.59,0,0,1-1.83,7.79l-5.78,5.79"/><path class="cls-3" d="M15.48,29.74,9.64,35.58a7.52,7.52,0,0,0-1.83,7.67h0a7.59,7.59,0,0,0,7.79-1.83L28.52,28.52"/><path class="cls-3" d="M28.52,22.61l13,13a7.51,7.51,0,0,1,1.82,7.67h0a7.58,7.58,0,0,1-7.78-1.83l-5.79-5.78"/><path class="cls-3" d="M21.39,15.48,15.55,9.64A7.53,7.53,0,0,0,7.87,7.81h0A7.59,7.59,0,0,0,9.69,15.6L22.61,28.52"/></g></g></svg>