<svg xmlns="http://www.w3.org/2000/svg" viewBox="0 0 51.13 49.58"><defs><style>.cls-1{fill:#f2f2f2;fill-rule:evenodd;}.cls-2{fill:#f75747;}.cls-3{fill:none;stroke:#000;stroke-linecap:round;stroke-linejoin:round;}</style></defs><title>Asset 3</title><g id="Layer_2" data-name="Layer 2"><g id="Layer_1-2" data-name="Layer 1"><path class="cls-1" d="M15.6,16A9.21,9.21,0,0,1,18.77,5.57L25.56.5l2.38,1a9.19,9.19,0,0,1,5.09,12L32.8,14a9.2,9.2,0,0,1,10.91-.21l6.92,4.89-.17,2.56a9.19,9.19,0,0,1-9.86,8.55l-.6,0a9.19,9.19,0,0,1,3.57,10.3l-2.52,8.09-2.48.63a9.18,9.18,0,0,1-11.18-6.73l-.15-.59a9.17,9.17,0,0,1-8.69,6.59l-8.48.1L8.71,46a9.19,9.19,0,0,1,2.94-12.71l.52-.32a9.33,9.33,0,0,1-3.78-.7,9.19,9.19,0,0,1-5.17-5.54c-1.41-4.14-2.72-8-2.72-8l1.64-2a9.2,9.2,0,0,1,13-1.13Z"/><circle class="cls-2" cx="25.56" cy="26.85" r="4.39" transform="matrix(1, -0.01, 0.01, 1, -0.21, 0.21)"/><circle class="cls-3" cx="25.56" cy="26.85" r="4.39" transform="matrix(1, -0.01, 0.01, 1, -0.21, 0.21)"/><path class="cls-3" d="M22.21,24l-4.55-4.69a9.21,9.21,0,0,1-1.51-10.7"/><path class="cls-3" d="M18.77,5.57,19.55,5"/><path class="cls-3" d="M22.51,2.78l3-2.28,2.38,1a9.19,9.19,0,0,1,5.09,12"/><path class="cls-3" d="M21.83,29.17,16,32A9.18,9.18,0,0,1,3.22,26.73c-1.41-4.14-2.72-8-2.72-8l1.64-2a9.2,9.2,0,0,1,13-1.13"/><path class="cls-3" d="M26.61,31.12s.43,3,.92,6.47a9.19,9.19,0,0,1-9,10.48l-8.48.1L8.71,46a9.19,9.19,0,0,1,2.94-12.71"/><path class="cls-3" d="M29.94,27.17l6.44,1.13a9.19,9.19,0,0,1,7.19,11.78l-2.52,8.09-2.48.63a9.18,9.18,0,0,1-11.18-6.73"/><path class="cls-3" d="M27.22,22.79,30.28,17a9.19,9.19,0,0,1,13.43-3.19l6.92,4.89-.17,2.56a9.19,9.19,0,0,1-9.86,8.55"/></g></g></svg>