<svg xmlns="http://www.w3.org/2000/svg" viewBox="0 0 50.25 50.73"><defs><style>.cls-1{fill:#f75747;}.cls-1,.cls-2{fill-rule:evenodd;}.cls-2{fill:#f2f2f2;}.cls-3{fill:none;stroke:#000;stroke-linecap:round;stroke-linejoin:round;}</style></defs><title>Asset 7</title><g id="Layer_2" data-name="Layer 2"><g id="Layer_1-2" data-name="Layer 1"><path class="cls-1" d="M18.39,17.41l-2-9.83A4.42,4.42,0,0,1,17,4.28a4.36,4.36,0,0,1,2.78-1.87L28.92.58a4.37,4.37,0,0,1,5,5.7l-4,11.61,8.72-5a4.36,4.36,0,0,1,6,1.65l4.56,8.13a4.36,4.36,0,0,1-3.87,6.5L33.05,29l7.42,6.77A4.35,4.35,0,0,1,40.73,42l-6.32,6.85a4.34,4.34,0,0,1-4.17,1.3,4.39,4.39,0,0,1-3.21-3L23.42,35.42l-4.14,9.15a4.35,4.35,0,0,1-5.8,2.16L5,42.84a4.37,4.37,0,0,1-.69-7.54l10-7.06-10-1.11A4.37,4.37,0,0,1,.53,22.28c.31-2.67.72-6.15,1.09-9.25a4.36,4.36,0,0,1,7-3Z"/><path class="cls-2" d="M23.83,21.42a4.18,4.18,0,1,1-4.18,4.18A4.18,4.18,0,0,1,23.83,21.42Z"/><path class="cls-3" d="M23.83,21.42a4.18,4.18,0,1,1-4.18,4.18A4.18,4.18,0,0,1,23.83,21.42Z"/><line class="cls-3" x1="23.83" y1="13.06" x2="23.83" y2="21.42"/><line class="cls-3" x1="11.91" y1="21.72" x2="19.86" y2="24.31"/><line class="cls-3" x1="16.47" y1="35.73" x2="21.38" y2="28.98"/><line class="cls-3" x1="31.2" y1="35.73" x2="26.29" y2="28.98"/><line class="cls-3" x1="35.75" y1="21.72" x2="27.8" y2="24.31"/><path class="cls-3" d="M19.65,23.54s-2.06-10-3.29-16a4.36,4.36,0,0,1,.24-2.53"/><path class="cls-3" d="M19.78,2.41l.53-.1"/><path class="cls-3" d="M24.61,1.45,28.92.58a4.37,4.37,0,0,1,5,5.7c-1.27,3.7-2.79,8.15-4,11.61"/><path class="cls-3" d="M20.58,28.93l-16.2-1.8A4.37,4.37,0,0,1,.53,22.28c.31-2.67.72-6.15,1.09-9.25a4.36,4.36,0,0,1,7-3l9.82,7.37"/><path class="cls-3" d="M26,29.71S21.79,39,19.28,44.57a4.35,4.35,0,0,1-5.8,2.16L5,42.84a4.37,4.37,0,0,1-.69-7.54l10-7.06"/><path class="cls-3" d="M28.42,24.8l12,11A4.35,4.35,0,0,1,40.73,42l-6.32,6.85a4.34,4.34,0,0,1-4.17,1.3,4.39,4.39,0,0,1-3.21-3c-1.15-3.74-2.54-8.24-3.61-11.73"/><path class="cls-3" d="M24.49,21l14.17-8.06a4.36,4.36,0,0,1,6,1.65l4.56,8.13a4.36,4.36,0,0,1-3.87,6.5L33.05,29"/></g></g></svg>