<svg xmlns="http://www.w3.org/2000/svg" viewBox="0 0 51.13 49.53"><defs><style>.cls-1{fill:#f2f2f2;}.cls-1,.cls-2{fill-rule:evenodd;}.cls-2{fill:#f75747;}.cls-3{fill:none;stroke:#000;stroke-linecap:round;stroke-linejoin:round;}</style></defs><title>Asset 9</title><g id="Layer_2" data-name="Layer 2"><g id="Layer_1-2" data-name="Layer 1"><path class="cls-1" d="M18.24,16a26.54,26.54,0,0,1-1.19-7.41,14.65,14.65,0,0,1,.16-2.2c.08-.89.33-3.47,2-4.06a5.35,5.35,0,0,1,.77-.58L24,.56c.51,0,1-.06,1.57-.06,4.7,0,8.51,1.26,8.51,8.05A26.18,26.18,0,0,1,32.88,16a26,26,0,0,1,6.68-3.42c6.46-2.1,8.84,1.14,10.29,5.6s1.43,8.49-5,10.59a26.13,26.13,0,0,1-7.11,1.14L27.17,21.73a19,19,0,0,1,5.35-5.51L22,23.18a19,19,0,0,1-3.59-6.8l3.36,12.19C17.81,30.35,11,30.25,6.3,28.73c-6.45-2.1-6.47-6.12-5-10.59s3.83-7.7,10.28-5.6A25.65,25.65,0,0,1,18.24,16Zm8.55,14.5c.48,4.28-1.72,10.73-4.62,14.72-4,5.5-7.81,4.27-11.62,1.51s-6.14-6-2.15-11.51a26.16,26.16,0,0,1,5.32-5.29Zm3.36-4.23c4.22.87,9.68,4.95,12.58,9,4,5.49,1.64,8.75-2.16,11.51S33,50.68,29,45.18a26.48,26.48,0,0,1-3.39-6.7Z"/><path class="cls-2" d="M25.56,21.78A4.26,4.26,0,1,1,21.31,26,4.25,4.25,0,0,1,25.56,21.78Z"/><path class="cls-3" d="M25.56,21.78A4.26,4.26,0,1,1,21.31,26,4.25,4.25,0,0,1,25.56,21.78Z"/><line class="cls-3" x1="25.56" y1="13.27" x2="25.56" y2="21.78"/><path class="cls-3" d="M22,23.18c-2.91-3.19-4.92-9.7-4.92-14.63a14.65,14.65,0,0,1,.16-2.2"/><path class="cls-3" d="M19.17,2.29a5.35,5.35,0,0,1,.77-.58"/><path class="cls-3" d="M24,.56c.51,0,1-.06,1.57-.06,4.7,0,8.51,1.26,8.51,8.05A26,26,0,0,1,32.87,16"/><path class="cls-3" d="M21.74,28.57C17.81,30.35,11,30.25,6.3,28.73c-6.45-2.1-6.47-6.12-5-10.59s3.83-7.7,10.28-5.6A26.28,26.28,0,0,1,18.26,16"/><path class="cls-3" d="M26.79,30.46c.48,4.28-1.72,10.73-4.62,14.72-4,5.5-7.81,4.27-11.62,1.51s-6.14-6-2.15-11.51a26.16,26.16,0,0,1,5.32-5.29"/><path class="cls-3" d="M30.15,26.23c4.22.87,9.68,4.95,12.58,9,4,5.49,1.64,8.75-2.16,11.51S33,50.68,29,45.18a26.48,26.48,0,0,1-3.39-6.7"/><path class="cls-3" d="M27.17,21.73c2.13-3.75,7.7-7.67,12.39-9.19,6.46-2.1,8.84,1.14,10.29,5.6s1.43,8.49-5,10.59a26.13,26.13,0,0,1-7.11,1.14"/><line class="cls-3" x1="13.42" y1="22.09" x2="21.52" y2="24.72"/><line class="cls-3" x1="18.06" y1="36.36" x2="23.06" y2="29.48"/><line class="cls-3" x1="33.07" y1="36.36" x2="28.06" y2="29.48"/><line class="cls-3" x1="37.71" y1="22.09" x2="29.61" y2="24.72"/></g></g></svg>