<svg xmlns="http://www.w3.org/2000/svg" viewBox="0 0 51.13 51.13"><defs><style>.cls-1{fill:#f75747;fill-rule:evenodd;}.cls-2{fill:#f2f2f2;}.cls-3{fill:none;stroke:#000;stroke-linecap:round;stroke-linejoin:round;}</style></defs><title>Asset 25</title><g id="Layer_2" data-name="Layer 2"><g id="Layer_1-2" data-name="Layer 1"><path class="cls-1" d="M25.56.5C27.87.5,29.74,5,29.74,10.63s-1.87,10.13-4.18,10.13-4.17-4.54-4.17-10.13S23.26.5,25.56.5ZM43.29,7.84C44.92,9.47,43,14,39.08,18S30.59,23.8,29,22.17s.25-6.17,4.21-10.12S41.66,6.21,43.29,7.84ZM22.17,22.17C20.54,23.8,16,21.91,12.05,18S6.21,9.47,7.84,7.84,14,8.1,18,12.05,23.8,20.54,22.17,22.17Zm-1.41,3.39c0,2.31-4.54,4.18-10.13,4.18S.5,27.87.5,25.56,5,21.39,10.63,21.39,20.76,23.26,20.76,25.56Zm29.87,0c0,2.31-4.54,4.18-10.13,4.18s-10.13-1.87-10.13-4.18,4.53-4.17,10.13-4.17S50.63,23.26,50.63,25.56ZM22.17,29c1.63,1.63-.26,6.16-4.21,10.12s-8.49,5.84-10.12,4.2.26-6.16,4.21-10.11S20.54,27.33,22.17,29ZM43.29,43.28c-1.63,1.64-6.17-.25-10.12-4.2S27.33,30.59,29,29s6.16.25,10.12,4.21S44.92,41.66,43.29,43.28ZM25.56,30.36c2.31,0,4.18,4.55,4.18,10.14s-1.87,10.13-4.18,10.13-4.17-4.54-4.17-10.13S23.26,30.36,25.56,30.36Z"/><circle class="cls-2" cx="25.56" cy="25.56" r="4.18"/><circle class="cls-3" cx="25.56" cy="25.56" r="4.18"/><path class="cls-3" d="M21.92,5.69c.11-.48.24-.94.38-1.38"/><path class="cls-3" d="M24.6.77a1.89,1.89,0,0,1,1-.27C27.87.5,29.74,5,29.74,10.63s-1.87,10.13-4.18,10.13-4.17-4.54-4.17-10.13c0-.24,0-.49,0-.73"/><path class="cls-3" d="M25.56,30.36c2.31,0,4.18,4.55,4.18,10.14s-1.87,10.13-4.18,10.13-4.17-4.54-4.17-10.13S23.26,30.36,25.56,30.36Z"/><ellipse class="cls-3" cx="40.5" cy="25.56" rx="10.13" ry="4.18"/><ellipse class="cls-3" cx="10.63" cy="25.56" rx="10.13" ry="4.18"/><path class="cls-3" d="M43.29,7.84C44.92,9.47,43,14,39.08,18S30.59,23.8,29,22.17s.25-6.17,4.21-10.12S41.66,6.21,43.29,7.84Z"/><path class="cls-3" d="M22.17,29c1.63,1.63-.26,6.16-4.21,10.12s-8.49,5.84-10.12,4.2.26-6.16,4.21-10.11S20.54,27.33,22.17,29Z"/><path class="cls-3" d="M43.29,43.28c-1.63,1.64-6.17-.25-10.12-4.2S27.33,30.59,29,29s6.16.25,10.12,4.21S44.92,41.66,43.29,43.28Z"/><path class="cls-3" d="M22.17,22.17C20.54,23.8,16,21.91,12.05,18S6.21,9.47,7.84,7.84,14,8.1,18,12.05,23.8,20.54,22.17,22.17Z"/></g></g></svg>