<svg xmlns="http://www.w3.org/2000/svg" viewBox="0 0 51.13 48.91"><defs><style>.cls-1{fill:#fd7edb;fill-rule:evenodd;}.cls-2{fill:#f2f2f2;}.cls-3{fill:none;stroke:#000;stroke-linecap:round;stroke-linejoin:round;}</style></defs><title>Asset 17</title><g id="Layer_2" data-name="Layer 2"><g id="Layer_1-2" data-name="Layer 1"><path class="cls-1" d="M16,13.69a10.79,10.79,0,0,1,4.74-10L25.56.5l4.82,3.21a10.78,10.78,0,0,1,4.75,10,10.75,10.75,0,0,1,10.95,1.43l4.55,3.59-1.57,5.57a10.77,10.77,0,0,1-8,7.6,10.77,10.77,0,0,1,2,10.86c-1.08,2.94-2,5.43-2,5.43l-5.78.24a10.78,10.78,0,0,1-9.71-5.29,10.75,10.75,0,0,1-9.7,5.29l-5.79-.24-2-5.43a10.77,10.77,0,0,1,2-10.86,10.75,10.75,0,0,1-8-7.6L.5,18.71,5,15.12A10.77,10.77,0,0,1,16,13.69Z"/><circle class="cls-2" cx="25.56" cy="26.85" r="4.39"/><circle class="cls-3" cx="25.56" cy="26.85" r="4.39"/><path class="cls-3" d="M21.17,24.66,17.37,18a10.78,10.78,0,0,1,.21-11"/><path class="cls-3" d="M20.21,4.09l.53-.38"/><path class="cls-3" d="M23.8,1.68,25.56.5l4.82,3.21a10.75,10.75,0,0,1,4.74,10"/><path class="cls-3" d="M22.12,30.35l-7.5,1.56A10.76,10.76,0,0,1,2.07,24.28L.5,18.71,5,15.12A10.78,10.78,0,0,1,16,13.7"/><path class="cls-3" d="M27.82,31.21s-.39,3.65-.83,7.62a10.76,10.76,0,0,1-11.13,9.58l-5.79-.24-2-5.43a10.76,10.76,0,0,1,1.81-10.6"/><path class="cls-3" d="M30.41,26.05l7,3.15a10.74,10.74,0,0,1,5.67,13.54c-1.08,2.94-2,5.43-2,5.43l-5.78.24a10.8,10.8,0,0,1-9.73-5.32"/><path class="cls-3" d="M26.29,22l5.15-5.67a10.76,10.76,0,0,1,14.64-1.21l4.55,3.59-1.57,5.57A10.77,10.77,0,0,1,41,31.89"/><line class="cls-3" x1="25.56" y1="13.68" x2="25.56" y2="22.46"/><line class="cls-3" x1="13.03" y1="22.78" x2="21.39" y2="25.5"/><line class="cls-3" x1="17.82" y1="37.51" x2="22.98" y2="30.41"/><line class="cls-3" x1="33.31" y1="37.51" x2="28.14" y2="30.41"/><line class="cls-3" x1="38.09" y1="22.78" x2="29.74" y2="25.5"/></g></g></svg>