<svg xmlns="http://www.w3.org/2000/svg" viewBox="0 0 51.13 51.13"><defs><style>.cls-1{fill:#7feba2;}.cls-2{fill:#f9de8a;fill-rule:evenodd;}.cls-3{fill:none;stroke:#000;stroke-linecap:round;stroke-linejoin:round;}</style></defs><title>Asset 6</title><g id="Layer_2" data-name="Layer 2"><g id="Layer_1-2" data-name="Layer 1"><circle class="cls-1" cx="40.18" cy="10.94" r="2.09"/><path class="cls-2" d="M19.48,21.59l-.67-.2s-7.26-3-3.37-10,1.6-10,1.6-10,6.43-1.46,7.61,4.53c0,0,4.29-1.61,4.29-5.38,0,0,3.79,7.64.59,19l.21-.67s3-7.26,10-3.37,10,1.6,10,1.6,1.45,6.43-4.53,7.61c0,0,1.6,4.29,5.38,4.29,0,0-7.64,3.79-19,.59l.67.21s7.27,3,3.38,10-1.61,10-1.61,10-6.42,1.45-7.6-4.53c0,0-4.3,1.6-4.29,5.38,0,0-3.8-7.64-.6-19l-.2.67s-3,7.27-10,3.38-10-1.61-10-1.61-1.46-6.43,4.53-7.6c0,0-1.61-4.3-5.38-4.29C.5,22.19,8.14,18.39,19.48,21.59Z"/><circle class="cls-3" cx="40.18" cy="10.94" r="2.09"/><path class="cls-3" d="M40.18,13h0A12.53,12.53,0,0,1,27.65,25.56H25.56"/><path class="cls-3" d="M18.81,21.39S14.5,19.6,14.3,15.57"/><path class="cls-3" d="M15.44,11.36c.15-.28.3-.56.43-.83"/><path class="cls-3" d="M17.37,6.66C18.29,3,17,1.35,17,1.35s6.43-1.46,7.61,4.53c0,0,4.29-1.61,4.29-5.38,0,0,4.22,8.5,0,20.89"/><path class="cls-3" d="M32.31,29.74s7.27,3,3.38,10-1.61,10-1.61,10-6.42,1.45-7.6-4.53c0,0-4.3,1.6-4.29,5.38,0,0-4.23-8.51,0-20.89"/><path class="cls-3" d="M21.39,32.31s-3,7.27-10,3.38-10-1.61-10-1.61-1.46-6.43,4.53-7.6c0,0-1.61-4.3-5.38-4.29,0,0,8.5-4.23,20.89,0"/><path class="cls-3" d="M29.74,18.81s3-7.26,10-3.37,10,1.6,10,1.6,1.45,6.43-4.53,7.61c0,0,1.6,4.29,5.38,4.29,0,0-8.51,4.22-20.89,0"/></g></g></svg>