<svg xmlns="http://www.w3.org/2000/svg" viewBox="0 0 51.13 51.13"><defs><style>.cls-1{fill:#7feba2;fill-rule:evenodd;}.cls-2{fill:#f9de8a;}.cls-3{fill:none;stroke:#000;stroke-linecap:round;stroke-linejoin:round;}</style></defs><title>Asset 20</title><g id="Layer_2" data-name="Layer 2"><g id="Layer_1-2" data-name="Layer 1"><path class="cls-1" d="M21.39,29.74S13.73,39.81,7.63,31.65C5.49,28.79.5,25.56.5,25.56l.83-.73a19.11,19.11,0,0,1,17.22-4.15l2.84.71S11.32,13.73,19.48,7.63C22.34,5.49,25.56.5,25.56.5l.73.83a19.13,19.13,0,0,1,4.16,17.22c-.41,1.65-.71,2.84-.71,2.84S37.4,11.32,43.5,19.47c2.14,2.87,7.13,6.09,7.13,6.09l-.84.73a19.1,19.1,0,0,1-17.21,4.16l-2.84-.71S39.81,37.4,31.65,43.5c-2.86,2.14-6.09,7.13-6.09,7.13l-.73-.84a19.09,19.09,0,0,1-4.15-17.21C21.09,30.93,21.39,29.74,21.39,29.74Z"/><circle class="cls-2" cx="40.18" cy="10.94" r="2.09"/><circle class="cls-3" cx="40.18" cy="10.94" r="2.09"/><path class="cls-3" d="M40.18,13h0A12.53,12.53,0,0,1,27.65,25.56H25.56"/><path class="cls-3" d="M29.74,29.74S39.81,37.4,31.65,43.5c-2.86,2.14-6.09,7.13-6.09,7.13l-.73-.84a19.09,19.09,0,0,1-4.15-17.21c.41-1.65.71-2.84.71-2.84"/><path class="cls-3" d="M21.39,21.39s-6.65-5.06-4.77-10.23"/><path class="cls-3" d="M19.48,7.63c.22-.17.44-.35.67-.55"/><path class="cls-3" d="M23.3,3.63C24.62,2,25.56.5,25.56.5l.73.83a19.13,19.13,0,0,1,4.16,17.22c-.41,1.65-.71,2.84-.71,2.84"/><path class="cls-3" d="M29.74,21.39S37.4,11.32,43.5,19.47c2.14,2.87,7.13,6.09,7.13,6.09l-.84.73a19.1,19.1,0,0,1-17.21,4.16l-2.84-.71"/><path class="cls-3" d="M21.39,29.74S13.73,39.81,7.63,31.65C5.49,28.79.5,25.56.5,25.56l.83-.73a19.11,19.11,0,0,1,17.22-4.15l2.84.71"/></g></g></svg>