<svg xmlns="http://www.w3.org/2000/svg" viewBox="0 0 50.43 50.43"><defs><style>.cls-1{fill:#f2f2f2;fill-rule:evenodd;}.cls-2{fill:#f75747;}.cls-3{fill:none;stroke:#000;stroke-linecap:round;stroke-linejoin:round;}</style></defs><title>Asset 16</title><g id="Layer_2" data-name="Layer 2"><g id="Layer_1-2" data-name="Layer 1"><path class="cls-1" d="M21,21S9.77,12.78,17.1,5a39.13,39.13,0,0,1,3.27-2.6L21,2S25,.69,25.21.65c4-.67,9.08.51,7.31,12A22.74,22.74,0,0,1,29.39,21S40,6.6,48.39,21c0,0,7.49,14.27-10.65,11.48a22.74,22.74,0,0,1-8.35-3.13s14.44,10.58,0,19c0,0-14.27,7.49-11.49-10.65A22.69,22.69,0,0,1,21,29.39s-10.58,14.44-19,0c0,0-7.49-14.27,10.65-11.49A22.68,22.68,0,0,1,21,21Z"/><circle class="cls-2" cx="39.83" cy="10.59" r="2.09"/><circle class="cls-3" cx="39.83" cy="10.59" r="2.09"/><path class="cls-3" d="M39.83,12.68h0A12.53,12.53,0,0,1,27.3,25.21H25.21"/><path class="cls-3" d="M21,21S9.77,12.78,17.1,5"/><path class="cls-3" d="M20.37,2.44,21,2"/><path class="cls-3" d="M25.21.65c4-.67,9.08.51,7.31,12A22.74,22.74,0,0,1,29.39,21"/><path class="cls-3" d="M29.39,29.39s14.44,10.58,0,19c0,0-14.27,7.49-11.49-10.65A22.69,22.69,0,0,1,21,29.39"/><path class="cls-3" d="M21,29.39s-10.58,14.44-19,0c0,0-7.49-14.27,10.65-11.49A22.68,22.68,0,0,1,21,21"/><path class="cls-3" d="M29.39,21S40,6.6,48.39,21c0,0,7.49,14.27-10.65,11.48a22.74,22.74,0,0,1-8.35-3.13"/></g></g></svg>